<mxfile host="app.diagrams.net" modified="2023-08-30T03:27:16.768Z" agent="Mozilla/5.0 (Windows NT 10.0; Win64; x64) AppleWebKit/537.36 (KHTML, like Gecko) Chrome/116.0.0.0 Safari/537.36" version="21.6.9" etag="IaR8sEQGjkgUN6GmH2I9" type="github">
  <diagram name="第 1 页" id="AXxm6MnpGRur1-2NQTSs">
    <mxGraphModel>
      <root>
        <mxCell id="0" />
        <mxCell id="1" parent="0" />
      </root>
    </mxGraphModel>
  </diagram>
</mxfile>
